<?xml version="1.0" standalone="no"?><!DOCTYPE svg PUBLIC "-//W3C//DTD SVG 1.1//EN" "http://www.w3.org/Graphics/SVG/1.1/DTD/svg11.dtd"><svg t="1492741490300" class="icon" style="" viewBox="0 0 1024 1024" version="1.1" xmlns="http://www.w3.org/2000/svg" p-id="2360" xmlns:xlink="http://www.w3.org/1999/xlink" width="32" height="32"><defs><style type="text/css"></style></defs><path d="M684.8 339.2c12.8 0 25.6 0 32 0-32-140.8-179.2-249.6-352-249.6-192 0-352 134.4-352 300.8 0 96 51.2 179.2 140.8 236.8l-32 108.8 121.6-64c44.8 6.4 76.8 19.2 121.6 19.2 12.8 0 19.2 0 32 0-6.4-25.6-12.8-51.2-12.8-76.8C390.4 467.2 518.4 339.2 684.8 339.2zM499.2 243.2c25.6 0 44.8 19.2 44.8 44.8S524.8 332.8 499.2 332.8C473.6 332.8 448 313.6 448 288S473.6 243.2 499.2 243.2zM249.6 332.8c-25.6 0-51.2-19.2-51.2-44.8s25.6-44.8 51.2-44.8c25.6 0 44.8 19.2 44.8 44.8S281.6 332.8 249.6 332.8zM1011.2 614.4c0-140.8-140.8-256-300.8-256-166.4 0-300.8 115.2-300.8 256 0 140.8 134.4 256 300.8 256 32 0 70.4-6.4 102.4-19.2l96 51.2-25.6-89.6C953.6 768 1011.2 697.6 1011.2 614.4zM620.8 601.6C595.2 601.6 569.6 576 569.6 550.4c0-25.6 25.6-51.2 51.2-51.2 25.6 0 51.2 25.6 51.2 51.2C672 576 652.8 601.6 620.8 601.6zM819.2 601.6c-25.6 0-51.2-19.2-51.2-51.2 0-25.6 19.2-51.2 51.2-51.2 25.6 0 51.2 19.2 51.2 51.2C870.4 576 851.2 601.6 819.2 601.6z" p-id="2361" fill="#ffffff"></path></svg>