<?xml version="1.0" encoding="utf-8"?>
<!-- Generator: Adobe Illustrator 16.0.0, SVG Export Plug-In . SVG Version: 6.00 Build 0)  -->
<!DOCTYPE svg PUBLIC "-//W3C//DTD SVG 1.1//EN" "http://www.w3.org/Graphics/SVG/1.1/DTD/svg11.dtd">
<svg version="1.1" id="图层_1" xmlns="http://www.w3.org/2000/svg" xmlns:xlink="http://www.w3.org/1999/xlink" x="0px" y="0px"
	 width="128px" height="128px" viewBox="0 0 128 128" enable-background="new 0 0 128 128" xml:space="preserve">
<g>
	<path fill="#EFAB00" d="M22.274,44.195h5.755v24.207c0.338,8.014-3.216,11.849-10.665,11.51
		c-6.321,0.111-9.762-3.327-10.326-10.325l5.586-0.847c0.225,4.29,1.862,6.321,4.909,6.094c3.272,0.114,4.851-1.973,4.74-6.263
		V44.195z"/>
	<path fill="#EFAB00" d="M51.558,43.687c10.72,0.677,16.475,6.715,17.266,18.112c-0.338,11.738-6.208,17.774-17.604,18.112
		c-11.061-0.565-16.816-6.543-17.266-17.943C34.517,50.347,40.386,44.253,51.558,43.687z M51.05,75.172
		c7.56-0.339,11.453-4.739,11.68-13.204c-0.566-8.125-4.346-12.526-11.341-13.203c-7.223,0.566-11.061,4.967-11.511,13.203
		C40.217,70.208,43.941,74.608,51.05,75.172z"/>
	<path fill="#EFAB00" d="M75.426,44.364h5.756v35.04h-5.756V44.364z"/>
	<path fill="#EFAB00" d="M113.174,72.464v-0.17c-0.227-2.256-0.338-4.343-0.338-6.263V44.364h5.586v35.04h-5.756
		c-6.771-9.929-11.738-17.266-14.896-22.005c-1.242-2.142-2.314-4.173-3.215-6.094h-0.17c0.338,2.031,0.508,4.346,0.508,6.94v21.159
		h-5.586v-35.04h5.924c6.658,9.818,11.512,17.097,14.559,21.836C111.029,68.007,112.158,70.094,113.174,72.464z"/>
</g>
<polyline fill="none" stroke="#EFAB00" stroke-width="2.8346" stroke-miterlimit="10" points="58.292,98 4,98 4,26.333 124,26.333 
	124,98 69.584,98 "/>
<polyline fill="none" stroke="#EFAB00" stroke-width="2.8346" stroke-miterlimit="10" points="57,98 63.708,113.224 71,98 "/>
</svg>
