<?xml version="1.0" encoding="utf-8"?>
<!-- Generator: Adobe Illustrator 16.0.0, SVG Export Plug-In . SVG Version: 6.00 Build 0)  -->
<!DOCTYPE svg PUBLIC "-//W3C//DTD SVG 1.1//EN" "http://www.w3.org/Graphics/SVG/1.1/DTD/svg11.dtd">
<svg version="1.1" id="图层_1" xmlns="http://www.w3.org/2000/svg" xmlns:xlink="http://www.w3.org/1999/xlink" x="0px" y="0px"
	 width="128px" height="128px" viewBox="0 0 128 128" enable-background="new 0 0 128 128" xml:space="preserve">
<g>
	<path fill="#EFAB00" d="M32.091,72.464v-0.17c-0.228-2.256-0.339-4.343-0.339-6.263V44.364h5.586v35.04h-5.755
		c-6.771-9.929-11.738-17.266-14.896-22.005c-1.243-2.142-2.314-4.173-3.216-6.094h-0.169c0.338,2.031,0.508,4.346,0.508,6.94
		v21.159H8.224v-35.04h5.924C20.805,54.182,25.659,61.46,28.706,66.2C29.946,68.007,31.076,70.094,32.091,72.464z"/>
	<path fill="#EFAB00" d="M50.711,74.495h21.667v4.908H44.956V44.195h26.575v5.248h-20.82v9.31h19.636v5.078H50.711V74.495z"/>
	<path fill="#EFAB00" d="M116.898,44.364h6.094l-10.666,35.04h-5.246c-4.629-15.798-7.055-24.092-7.279-24.883
		c-0.338-0.788-0.508-2.031-0.508-3.724h-0.17c0,0.791-0.168,2.031-0.508,3.724c-0.338,0.791-2.936,9.085-7.785,24.883h-5.248
		l-10.156-35.04h6.094c3.834,14.785,5.924,22.852,6.264,24.207c0,0.114,0.055,0.283,0.168,0.508c0.225,1.581,0.34,2.708,0.34,3.386
		h0.168c0-1.241,0.225-2.539,0.678-3.894c0.338-0.901,2.764-8.972,7.279-24.207h5.754c4.174,15.235,6.434,23.305,6.771,24.207
		c0.449,1.354,0.678,2.652,0.678,3.894h0.168c0-0.678,0.111-1.805,0.34-3.386c0.111-0.225,0.168-0.394,0.168-0.508
		C110.635,67.216,112.834,59.149,116.898,44.364z"/>
</g>
</svg>
